<svg xmlns="http://www.w3.org/2000/svg" width="3000" height="3000" fill="none" viewBox="0 0 3000 3000" id="business-report"><path fill="#E7E8FF" d="M2351.98 897.759C2253.87 865.115 2144.86 723.659 2102.63 657.012 2008.61 534.424 2131.24 501.954 2241.61 608.046 2351.98 714.138 2351.98 657.012 2441.9 754.943 2531.83 852.874 2474.61 938.563 2351.98 897.759zM192.9 1772.31C30.0136 2016.2 96.0946 2248.88 190.135 2409 265.669 2537.61 416.181 2592.48 565.529 2592.48H1941.4C2232.6 2592.48 2520.82 2383.1 2629.73 2113.51 2714.62 1903.35 2780.71 1670.88 2693.38 1446.41 2529.88 1026.12 2288.7 1103.65 1982.12 740.492 1675.55 377.331 1352.98 464.98 849.83 662.963 135.672 943.975 503.565 1307.14 192.9 1772.31z"></path><path fill="#fff" d="M493.617 543.259C493.617 473.502 550.119 416.953 619.817 416.953H1562.6C1632.3 416.953 1688.8 473.502 1688.8 543.259V2458.75C1688.8 2528.5 1632.3 2585.05 1562.6 2585.05H619.817C550.119 2585.05 493.617 2528.5 493.617 2458.75V543.259Z"></path><path fill="#032068" fill-rule="evenodd" d="M486.193 543.259C486.193 469.398 546.018 409.523 619.816 409.523H1562.6C1636.4 409.523 1696.22 469.398 1696.22 543.259V2458.75C1696.22 2532.61 1636.4 2592.48 1562.6 2592.48H619.816C546.018 2592.48 486.193 2532.61 486.193 2458.75V543.259ZM619.816 424.382C554.218 424.382 501.04 477.605 501.04 543.259V2458.75C501.04 2524.4 554.218 2577.62 619.816 2577.62H1562.6C1628.2 2577.62 1681.38 2524.4 1681.38 2458.75V543.259C1681.38 477.605 1628.2 424.382 1562.6 424.382H619.816Z" clip-rule="evenodd"></path><path fill="#F4AD5E" d="M846.453 2219.63C846.453 2199.12 863.071 2182.49 883.57 2182.49H1309.87C1330.37 2182.49 1346.99 2199.12 1346.99 2219.63V2252.1C1346.99 2272.61 1330.37 2289.25 1309.87 2289.25H883.57C863.071 2289.25 846.453 2272.61 846.453 2252.1V2219.63Z"></path><path fill="#E7E8FF" d="M752.285 2001.81C731.786 2001.81 715.167 1985.18 715.167 1964.66L715.167 1833.65C715.167 1813.13 731.786 1796.5 752.285 1796.5L784.721 1796.5C805.22 1796.5 821.839 1813.13 821.839 1833.65L821.839 1964.66C821.839 1985.18 805.22 2001.81 784.721 2001.81L752.285 2001.81zM965.622 2001.81C945.122 2001.81 928.504 1985.18 928.504 1964.66L928.504 1751.53C928.504 1731.01 945.122 1714.38 965.622 1714.38L998.058 1714.38C1018.56 1714.38 1035.18 1731.01 1035.18 1751.53L1035.18 1964.66C1035.18 1985.18 1018.56 2001.81 998.058 2001.81L965.622 2001.81zM1178.97 2001.81C1158.47 2001.81 1141.85 1985.18 1141.85 1964.66L1141.85 1685.83C1141.85 1665.31 1158.47 1648.68 1178.97 1648.68L1211.4 1648.68C1231.9 1648.68 1248.52 1665.31 1248.52 1685.83L1248.52 1964.66C1248.52 1985.18 1231.9 2001.81 1211.4 2001.81L1178.97 2001.81zM1392.31 2001.81C1371.81 2001.81 1355.19 1985.18 1355.19 1964.66L1355.19 1833.65C1355.19 1813.13 1371.81 1796.5 1392.31 1796.5L1424.75 1796.5C1445.25 1796.5 1461.86 1813.13 1461.86 1833.65L1461.86 1964.66C1461.86 1985.18 1445.25 2001.81 1424.75 2001.81L1392.31 2001.81z"></path><path fill="#032068" d="M845.237 474.023L814.822 416.948H1367.59L1330.64 478.591C1311.86 509.921 1278.03 529.091 1241.52 529.091H936.939C898.557 529.091 863.299 507.919 845.237 474.023Z"></path><path fill="#032068" d="M1658.92 461.807H523.496C562.34 422.931 599.44 415.704 613.135 416.95H1569.28C1617.09 416.95 1648.96 446.854 1658.92 461.807zM1658.92 2540.19H523.496C562.34 2579.07 599.44 2586.29 613.135 2585.05H1569.28C1617.09 2585.05 1648.96 2555.14 1658.92 2540.19z"></path><path fill="#E7E8FF" fill-rule="evenodd" d="M1262.79 1007.33H706.961V992.472H1262.79V1007.33Z" clip-rule="evenodd"></path><path fill="#F4AD5E" fill-rule="evenodd" d="M712.661 1159.7C712.661 1135.08 732.602 1115.12 757.202 1115.12H1330.71C1355.31 1115.12 1375.25 1135.08 1375.25 1159.7V1400.78C1375.25 1425.4 1355.31 1445.36 1330.71 1445.36H757.202C732.602 1445.36 712.661 1425.4 712.661 1400.78V1159.7ZM757.202 1129.98C740.802 1129.98 727.508 1143.28 727.508 1159.7V1400.78C727.508 1417.2 740.802 1430.5 757.202 1430.5H1330.71C1347.11 1430.5 1360.4 1417.2 1360.4 1400.78V1159.7C1360.4 1143.28 1347.11 1129.98 1330.71 1129.98H757.202Z" clip-rule="evenodd"></path><path fill="#F4AD5E" fill-rule="evenodd" d="M943.463 1192.46C937.509 1183.06 923.727 1183.3 918.111 1192.91L837.981 1329.91C832.654 1339.02 822.9 1344.62 812.355 1344.62H720.084V1329.76H812.355C817.627 1329.76 822.504 1326.96 825.168 1322.4L905.298 1185.4C916.531 1166.19 944.093 1165.7 956.001 1184.5L1033.44 1306.72C1038.91 1315.36 1051.26 1316.01 1057.61 1308L1122.87 1225.65C1134.09 1211.49 1155.23 1210.55 1167.66 1223.65L1226.57 1285.71C1229.38 1288.66 1233.27 1290.33 1237.34 1290.33H1363.45V1305.19H1237.34C1229.2 1305.19 1221.41 1301.85 1215.81 1295.94L1156.9 1233.88C1150.68 1227.33 1140.11 1227.8 1134.5 1234.88L1069.25 1317.23C1056.55 1333.25 1031.85 1331.95 1020.9 1314.68L943.463 1192.46Z" clip-rule="evenodd"></path><path fill="#E7E8FF" fill-rule="evenodd" d="M1478.27 884.146H706.961V869.286H1478.27V884.146Z" clip-rule="evenodd"></path><path fill="#EFCB96" d="M1243.32 1407.85C1249.17 1431.75 1276.28 1448.55 1281.16 1457.26L1192.13 1534.81C1177.51 1506.19 1156.82 1444.68 1083.69 1435.72C981.312 1424.51 972.403 1347.82 1023.59 1336.62C1064.55 1327.66 1136.06 1342.07 1173.84 1349.54L1130.67 1330.77C1124.69 1328.18 1122.68 1320.7 1126.53 1315.45C1128.66 1312.55 1132.17 1310.97 1135.76 1311.19C1150.47 1312.06 1177.45 1313.36 1199.44 1329.44C1221.06 1345.23 1236.01 1377.98 1243.32 1407.85Z"></path><path fill="#032068" d="M2673.45 2595.04L2647.65 2348.91L1745.25 2342.99L1737.25 2595.04H2673.45Z"></path><path fill="#EFCB96" d="M2077.7 1097.9L2065.7 1201.92L2069.7 1281.94L2217.73 1297.94L2281.74 1217.92L2269.74 1097.9C2294.13 1083.96 2312.46 1045.73 2316.78 985.872C2325.1 983.205 2341.76 970.669 2341.76 941.862C2341.76 913.056 2323.51 903.187 2314.38 901.854C2301.39 804.738 2251.01 769.825 2165.72 769.825C2083.94 769.825 2039.61 823.309 2026.15 901.854C2016.66 900.52 1997.68 906.655 1997.68 941.862C1997.68 977.07 2014.73 985.872 2023.26 985.872C2031.08 1053.7 2065.89 1088.45 2077.7 1097.9Z"></path><path fill="#F4AD5E" fill-rule="evenodd" d="M1697.61 2314.16C1737.62 2394.17 2021.68 2394.17 2189.72 2394.17C2323.67 2394.17 2455.76 2386.7 2536.2 2365.38C2564.48 2398.28 2670.69 2433.64 2705.26 2430.18C2745.26 2426.18 2901.3 2010.09 2905.3 1914.07C2909.3 1818.05 2785.27 1393.96 2577.23 1265.93C2576.93 1265.76 2576.62 1265.6 2576.32 1265.43C2576.18 1264.26 2576.03 1263.09 2575.89 1261.93C2475.24 1189.81 2366.53 1168.42 2301.74 1169.91C2301.74 1196.58 2276.94 1249.93 2177.72 1249.93C2078.49 1249.93 2056.36 1196.58 2053.69 1169.91C2015.02 1170.98 1913.52 1184.35 1823.64 1226.31C1766.05 1248.33 1703.97 1285.84 1661.66 1346.77C1600.52 1434.81 1575.26 1512.38 1558.46 1563.96C1547.78 1596.76 1540.52 1619.06 1529.63 1626.83C1514.96 1637.31 1458.6 1581.95 1402.48 1526.83L1402.48 1526.83C1351.45 1476.71 1300.63 1426.79 1281.57 1426.79C1241.57 1426.79 1149.55 1506.81 1149.55 1554.82C1149.55 1602.83 1369.59 2010.92 1433.61 2054.93C1495.61 2097.55 1639.8 2098.89 1681.52 2058.94C1682.84 2193.95 1688.86 2296.65 1697.61 2314.16Z" clip-rule="evenodd"></path><path fill="#032068" d="M2001.68 833.839C1995.28 872.248 2001.68 925.859 2017.68 945.863L2049.69 877.849C2059.29 884.25 2104.37 885.85 2121.71 885.85 2188.92 882.65 2237.73 844.508 2253.74 825.837 2256.94 854.644 2300.41 931.193 2317.75 965.867 2339.09 933.861 2352.96 849.843 2333.75 769.825 2314.55 689.808 2261.74 685.808 2229.73 693.809 2141.71 625.795 2041.69 633.796 1993.68 701.811 1955.27 756.223 1977.68 812.501 2001.68 833.839zM1697.25 1562.82C1685.24 1714.85 1681.24 1954.9 1681.24 2058.93 1668.44 2071.73 1641.23 2077.6 1629.23 2078.93 1651.64 2027.72 1681.24 1714.85 1697.25 1562.82z"></path><path fill="#EFCB96" d="M2501.09 2443.1C2502.97 2421.64 2510.63 2419.33 2536.65 2394.76C2542.11 2389.6 2546.81 2384.6 2550.81 2379.91C2577.15 2399.53 2647.5 2420.79 2679.38 2428.96C2681.09 2473.4 2645.76 2546.41 2630.8 2554.4C2612.81 2564.01 2544.95 2546.88 2527.68 2531.2C2513.86 2518.65 2526.07 2484.32 2534.48 2470.64C2525.4 2463.63 2499.59 2460.27 2501.09 2443.1Z"></path><path fill="#032068" d="M2869.3 2066.1C2805.28 1941.28 2837.29 1768.71 2861.3 1698.02 2873.3 1743.37 2898.9 1845.26 2905.31 1890.07 2911.71 1934.88 2883.97 2026.1 2869.3 2066.1zM2577.24 1962.08C2574.03 1901.27 2535.89 1755.37 2517.22 1690.02 2545.23 1762.04 2617.24 1882.06 2617.24 1962.08 2617.24 2026.1 2558.56 2244.81 2529.22 2346.16 2546.56 2243.48 2580.44 2022.89 2577.24 1962.08zM1669.24 2066.93C1570.02 1983.71 1417.18 1954.9 1353.17 1950.9 1363.84 1981.58 1404.38 2049.32 1481.2 2074.93 1558.01 2100.54 1638.56 2080.26 1669.24 2066.93zM2169.34 1130.73C2118.13 1130.73 2086.66 1109.39 2077.33 1098.72L2073.32 1138.73C2162.94 1189.94 2244.03 1160.07 2273.37 1138.73L2269.37 1098.72C2257.36 1109.39 2220.56 1130.73 2169.34 1130.73z"></path><path fill="#F4AD5E" d="M329.103 644.213L292.69 692.465C290.475 695.401 286.862 696.813 283.323 696.127L238.318 687.402C228.636 685.525 222.794 698.116 230.267 704.757L265.637 736.19C268.22 738.485 269.44 742.019 268.846 745.487L259.972 797.318C258.304 807.062 269.899 813.093 276.463 805.896L312.797 766.065C314.93 763.726 318.023 762.596 321.103 763.03L363.152 768.955C372.624 770.29 377.988 758.075 370.786 751.572L339.514 723.337C337.003 721.07 335.803 717.62 336.342 714.217L346.202 651.957C347.815 641.774 335.241 636.079 329.103 644.213zM264.126 1159.94L249.291 1178.25C248.389 1179.36 246.917 1179.9 245.475 1179.63L227.14 1176.33C223.195 1175.61 220.815 1180.39 223.86 1182.91L238.27 1194.83C239.322 1195.7 239.819 1197.04 239.577 1198.36L235.962 1218.02C235.282 1221.71 240.006 1224 242.681 1221.27L257.483 1206.16C258.352 1205.28 259.612 1204.85 260.867 1205.01L277.998 1207.26C281.857 1207.77 284.042 1203.13 281.108 1200.67L268.368 1189.96C267.345 1189.1 266.856 1187.79 267.076 1186.5L271.093 1162.88C271.75 1159.02 266.627 1156.86 264.126 1159.94z"></path><path fill="#fff" d="M213.606 2073.02C143.623 2208.16 258.688 2455.38 331.176 2572.94C335.569 2580.06 343.374 2584.31 351.745 2584.31H462.841C477.749 2584.31 489.183 2570.85 486.894 2556.11C415.314 2095.43 238.056 2033.29 213.606 2073.02Z"></path><path fill="#032068" fill-rule="evenodd" d="M220.705 2077.1C187.507 2141.56 197.827 2234.19 226.77 2327.14C255.595 2419.72 302.147 2510.28 338.135 2568.65C341 2573.29 346.134 2576.13 351.744 2576.13H462.84C472.689 2576.13 480.341 2567.19 478.815 2557.37C443.149 2327.83 381.308 2198.72 326.274 2132.12C298.729 2098.79 273.195 2081.47 253.847 2074.68C234.004 2067.71 223.815 2072.38 220.705 2077.1ZM338.879 2121.71C396.481 2191.41 459.059 2323.72 494.973 2554.86C498.025 2574.5 482.809 2592.48 462.84 2592.48H351.744C340.614 2592.48 330.138 2586.83 324.216 2577.23C287.716 2518.04 240.491 2426.21 211.158 2332.01C181.989 2238.33 169.754 2139.92 206.346 2069.26L206.485 2069L206.643 2068.74C215.926 2053.65 237.058 2051.45 259.265 2059.25C282.266 2067.32 310.106 2086.89 338.879 2121.71Z" clip-rule="evenodd"></path><path fill="#032068" d="M423.911 1812.11C265.869 1904.07 338.536 2339.66 398.868 2563.35C401.731 2573.96 411.373 2581.19 422.364 2581.19H505.007C516.81 2581.19 526.968 2572.7 529.043 2561.08C607.138 2123.82 543 1772 427.5 1810.48C426.274 1810.89 425.027 1811.46 423.911 1812.11Z"></path><path fill="#fff" d="M805.945 2101.08C640.127 2112.76 506.931 2389.6 451.411 2552.76C446.098 2568.37 457.873 2584.31 474.366 2584.31H563.951C569.258 2584.31 574.404 2582.62 578.598 2579.37C774.6 2427.46 907.709 2101.08 805.945 2101.08Z"></path><path fill="#032068" fill-rule="evenodd" d="M806.223 2109.26C767.104 2112.09 729.354 2130.56 693.594 2159.95 657.747 2189.42 624.329 2229.53 594.11 2274.66 533.668 2364.95 486.768 2474.24 459.151 2555.39 455.703 2565.52 463.285 2576.13 474.366 2576.13H563.951C567.526 2576.13 570.891 2575 573.59 2572.91 670.285 2497.97 751.822 2379.59 796.472 2279.92 818.834 2230 831.573 2185.58 832.746 2154.15 833.336 2138.36 830.959 2126.93 826.484 2119.71 822.421 2113.16 816.197 2109.33 806.223 2109.26zM811.395 2286.6C765.931 2388.1 682.913 2508.87 583.607 2585.83 577.916 2590.24 570.99 2592.48 563.951 2592.48H474.366C452.462 2592.48 436.492 2571.22 443.671 2550.12 471.574 2468.13 519.032 2357.42 580.522 2265.57 611.27 2219.64 645.711 2178.15 683.21 2147.32 720.706 2116.5 761.686 2096 805.371 2092.93L805.657 2092.91H805.945C821.249 2092.91 833.049 2099.27 840.382 2111.09 847.339 2122.32 849.728 2137.57 849.087 2154.76 847.798 2189.27 834.09 2235.94 811.395 2286.6zM270.351 2137.17C290.252 2167.92 312.545 2218.7 334.321 2275.87 348.466 2313.01 362.486 2353.11 375.589 2392.63L395.996 2329.28 411.56 2334.29 384.251 2419.07C404.526 2481.69 422.02 2540.87 433.478 2582.12L417.723 2586.49C412.406 2567.35 405.777 2544.31 398.166 2518.84L343.691 2488.57 351.632 2474.28 391.386 2496.36C384.171 2472.68 376.26 2447.41 367.883 2421.6 353.13 2376.14 336.949 2329.01 320.591 2285.78L242.961 2268.05 246.602 2252.11 313.528 2267.39C293.623 2216.37 273.906 2172.76 256.623 2146.05L270.351 2137.17z" clip-rule="evenodd"></path><path fill="#fff" fill-rule="evenodd" d="M453.464 2015.96C450.648 1954.83 447.211 1906.98 442.989 1884.46L426.917 1887.48C431.38 1911.28 435.103 1966.9 438.108 2039.07C439.807 2079.9 441.271 2125.8 442.521 2173.83L387.835 2117.22L376.074 2128.58L443.127 2198C444.294 2246.14 445.255 2295.89 446.033 2344.38C447.462 2433.48 448.271 2518.33 448.6 2581.23L464.952 2581.14C464.626 2518.87 463.83 2435.1 462.428 2346.99L516.237 2277.56L503.312 2267.54L461.996 2320.85C461.274 2278.7 460.412 2235.94 459.396 2194.41C458.063 2139.9 456.465 2087.5 454.568 2041.36L500.67 1981.36L487.704 1971.4L453.464 2015.96Z" clip-rule="evenodd"></path><path fill="#032068" fill-rule="evenodd" d="M707.407 2245.98C739.143 2206.14 769.373 2173.64 795.236 2154.41L785.479 2141.28C754.941 2163.99 719.798 2203.09 684.13 2249.16C667.42 2270.74 650.509 2293.97 633.805 2317.94V2272.55H617.453V2341.74C595.402 2374.26 573.935 2407.62 554.019 2439.7C520.668 2493.43 491.63 2543.62 471.435 2580.37L485.765 2588.24C505.4 2552.51 533.507 2503.89 565.835 2451.68L641.666 2442.78L639.761 2426.54L576.911 2433.91C594.569 2405.8 613.275 2376.98 632.391 2348.85C652.94 2318.61 673.943 2289.2 694.612 2262.34H768.534V2245.98H707.407Z" clip-rule="evenodd"></path></svg>