<svg width="332" height="249" viewBox="0 0 332 249" fill="none" xmlns="http://www.w3.org/2000/svg">
<g clip-path="url(#clip0_110_129)">
<path d="M310.025 1.96765H188.009C176.108 1.96765 166.46 11.6196 166.46 23.5259V23.5263C166.46 35.4326 176.108 45.0846 188.009 45.0846H310.025C321.926 45.0846 331.574 35.4326 331.574 23.5263V23.5259C331.574 11.6196 321.926 1.96765 310.025 1.96765Z" fill="white"/>
<path d="M310.025 45.5101H188.009C182.199 45.4829 176.636 43.1547 172.537 39.0348C168.439 34.915 166.138 29.3388 166.138 23.5261C166.138 17.7134 168.439 12.1372 172.537 8.0174C176.636 3.89756 182.199 1.56937 188.009 1.54211H310.025C312.92 1.52853 315.788 2.08714 318.466 3.18585C321.144 4.28457 323.579 5.90174 325.63 7.9445C327.682 9.98725 329.31 12.4153 330.42 15.0893C331.531 17.7633 332.103 20.6304 332.103 23.5261C332.103 26.4218 331.531 29.289 330.42 31.9629C329.31 34.6369 327.682 37.065 325.63 39.1077C323.579 41.1505 321.144 42.7677 318.466 43.8664C315.788 44.9651 312.92 45.5237 310.025 45.5101V45.5101ZM188.009 2.3932C182.407 2.3932 177.034 4.61962 173.073 8.58268C169.112 12.5457 166.886 17.9208 166.886 23.5254C166.886 29.13 169.112 34.505 173.073 38.4681C177.034 42.4312 182.407 44.6576 188.009 44.6576H310.025C315.627 44.6576 321 42.4312 324.962 38.4681C328.923 34.505 331.148 29.13 331.148 23.5254C331.148 17.9208 328.923 12.5457 324.962 8.58268C321 4.61962 315.627 2.3932 310.025 2.3932H188.009Z" fill="#474646"/>
<path d="M88.0481 50.9382C88.0481 50.9382 86.7348 66.4958 83.1318 72.0849C72.7593 88.1749 69.5135 106.425 79.4428 116.166C89.3721 125.906 153.779 127.18 159.049 105.274C163.485 86.8315 154.704 84.6845 152.83 69.3721C151.982 62.4439 149.569 47.9048 149.569 47.9048" fill="#474646"/>
<path d="M143.006 101.522C142.894 101.508 141.66 121.992 117.874 120.206C101.406 118.972 95.535 101.492 95.1555 101.492C96.9309 101.114 99.921 100.566 100.709 100.145C103.303 98.7506 106.51 97.3004 107.346 92.2625C107.83 89.3611 107.011 74.5047 107.263 71.5656L132.54 77.2098C132.187 83.4141 129.715 97.798 138.379 100.344C139.822 100.768 141.375 101.154 143.006 101.522Z" fill="#E98862"/>
<path opacity="0.5" d="M132.896 94.4681C132.5 93.1916 132.245 91.8755 132.136 90.5434C131.858 87.5035 131.913 84.4423 132.301 81.4145C127.164 80.7207 122.324 78.5994 118.332 75.2915C117.863 77.0256 115.281 84.6032 115.996 86.2512C117.346 89.3645 123.693 94.4681 132.896 94.4681Z" fill="#474646"/>
<path d="M129.296 88.0841C119.315 88.8718 106.493 84.6555 104.058 71.3331L101.86 59.3124C99.4246 45.9899 104.444 33.9102 116.983 31.6162C129.521 29.3221 140.867 38.407 143.303 51.7295L144.275 57.0517C145.21 62.1635 147.105 86.6783 129.296 88.0841Z" fill="#E98862"/>
<path d="M133.371 69.6579L133.395 69.6541C133.903 69.5574 134.405 69.4328 134.9 69.2808C135.638 69.0482 136.604 68.6623 136.483 67.9959C136.344 67.2367 132.768 59.427 132.361 58.5386C132.324 58.464 132.259 58.4068 132.18 58.3791C132.102 58.3514 132.015 58.3554 131.939 58.3902C131.864 58.425 131.804 58.4879 131.774 58.5657C131.743 58.6434 131.744 58.73 131.777 58.807C133.302 62.133 135.757 67.6008 135.85 68.112C135.766 68.3479 134.54 68.789 133.28 69.0211C133.199 69.0368 133.127 69.0831 133.079 69.1504C133.031 69.2178 133.011 69.3009 133.022 69.3828C133.034 69.4646 133.077 69.5388 133.142 69.59C133.206 69.6412 133.288 69.6655 133.371 69.6579V69.6579Z" fill="#474646"/>
<path d="M131.481 75.3916C133.526 75.1387 135.482 74.4087 137.193 73.2605C137.264 73.2144 137.315 73.1417 137.333 73.0583C137.351 72.975 137.335 72.8878 137.289 72.8161C137.243 72.7443 137.171 72.6938 137.087 72.6757C137.004 72.6576 136.917 72.6733 136.845 72.7194C133.144 75.0995 129.478 75.4661 126.244 73.7784C126.179 73.7424 126.111 73.7101 126.042 73.6817C125.962 73.6523 125.874 73.6558 125.797 73.6917C125.719 73.7275 125.659 73.7926 125.63 73.8727C125.6 73.9528 125.604 74.0413 125.64 74.1187C125.675 74.1962 125.741 74.2562 125.821 74.2857C125.846 74.2963 125.888 74.319 125.947 74.35C127.647 75.2402 129.574 75.6029 131.481 75.3916V75.3916Z" fill="#474646"/>
<path d="M91.8155 63.4353L103.055 61.4449C111.578 58.0555 114.24 43.3462 114.24 43.3462C114.24 43.3462 124.506 53.4795 149.569 47.9063C149.569 47.9063 144.765 12.9569 107.728 22.8828C95.7853 26.0831 87.1549 38.0501 88.1221 54.1217C88.7998 65.3826 91.8155 63.4353 91.8155 63.4353Z" fill="#474646"/>
<path d="M105.578 75.2495C101.768 75.9468 97.9334 72.4337 97.2364 68.6217C96.5394 64.8097 99.2443 62.1418 103.055 61.4449L105.485 63.6399L108.854 74.6499L105.578 75.2495Z" fill="#E98862"/>
<path d="M135.163 52.4117C136.124 51.7569 137.242 51.3683 138.402 51.2855C138.985 51.24 139.571 51.2827 140.142 51.4122C140.717 51.5403 141.274 51.7401 141.8 52.007L141.816 52.0147C141.874 52.041 141.94 52.0436 142 52.022C142.061 52.0004 142.11 51.9563 142.138 51.8989C142.166 51.8416 142.171 51.7756 142.151 51.7149C142.132 51.6541 142.089 51.6033 142.033 51.5732C141.477 51.2664 140.884 51.031 140.269 50.8725C139.649 50.7103 139.009 50.6422 138.369 50.6704C137.073 50.7191 135.813 51.1151 134.722 51.8169C134.682 51.8435 134.647 51.8779 134.619 51.918C134.592 51.9581 134.573 52.0032 134.563 52.0507C134.553 52.0982 134.553 52.1472 134.562 52.1949C134.571 52.2425 134.589 52.288 134.616 52.3285C134.642 52.3691 134.677 52.4041 134.717 52.4314C134.757 52.4587 134.802 52.4778 134.85 52.4877C134.897 52.4976 134.946 52.498 134.994 52.4889C135.041 52.4799 135.087 52.4615 135.127 52.4349L135.136 52.4291L135.163 52.4117Z" fill="#474646"/>
<path d="M124.907 53.6448C123.639 53.3693 122.32 53.4391 121.088 53.8469C120.479 54.0447 119.903 54.3327 119.379 54.7014C118.858 55.065 118.385 55.4929 117.971 55.9752C117.949 55.9986 117.931 56.0263 117.92 56.0565C117.908 56.0867 117.903 56.1189 117.904 56.1512C117.905 56.2165 117.933 56.2784 117.98 56.3233C118.028 56.3682 118.091 56.3924 118.156 56.3906C118.222 56.3888 118.284 56.3611 118.328 56.3137L118.342 56.3001C118.74 55.8662 119.192 55.4842 119.687 55.1632C120.176 54.8418 120.71 54.5963 121.273 54.435C122.39 54.1058 123.574 54.0786 124.705 54.3561L124.733 54.3634C124.827 54.3882 124.928 54.3742 125.013 54.3247C125.097 54.2751 125.159 54.194 125.183 54.0991C125.208 54.0043 125.194 53.9035 125.145 53.8189C125.095 53.7344 125.014 53.6729 124.919 53.6482L124.907 53.6448Z" fill="#474646"/>
<path d="M131.896 78.4155C132.267 78.3758 132.633 78.3044 132.992 78.2022C133.074 78.1792 133.143 78.1244 133.185 78.05C133.227 77.9756 133.237 77.8876 133.214 77.8055C133.191 77.7233 133.137 77.6537 133.062 77.612C132.988 77.5702 132.9 77.5597 132.818 77.5828C130.662 78.1892 129.442 77.3608 129.391 77.325C129.322 77.2756 129.235 77.2558 129.151 77.27C129.067 77.2842 128.992 77.3312 128.943 77.4007C128.893 77.4702 128.874 77.5565 128.888 77.6406C128.902 77.7248 128.949 77.7998 129.019 77.8492C129.884 78.3651 130.901 78.5652 131.896 78.4155V78.4155Z" fill="#474646"/>
<path d="M103.065 61.2611C110.644 58.5918 113.235 53.4335 114.073 49.576C114.616 47.0032 114.616 44.3454 114.073 41.7726L113.839 41.8325C114.374 44.3718 114.372 46.9948 113.834 49.5335C113.007 53.3276 110.451 58.4022 102.984 61.0338L103.065 61.2611Z" fill="#474646"/>
<path opacity="0.1" d="M123.271 70.5744C124.914 70.4077 126.148 69.2951 126.025 68.0894C125.903 66.8836 124.472 66.0412 122.829 66.2079C121.186 66.3745 119.952 67.4871 120.075 68.6929C120.197 69.8987 121.628 70.7411 123.271 70.5744Z" fill="#474646"/>
<path opacity="0.1" d="M140.683 66.0722C140.808 67.2763 142.239 68.1178 143.882 67.9533C144.166 67.9244 144.447 67.866 144.719 67.7793C144.82 66.3479 144.849 64.9697 144.83 63.6931C144.377 63.5711 143.904 63.5351 143.438 63.5867C141.794 63.7511 140.562 64.8633 140.683 66.0722Z" fill="#474646"/>
<path d="M68.2848 223.231L65.4306 248.516H168.918L167.322 223.072L68.2848 223.231Z" fill="#474646"/>
<path d="M117.328 115.115C100.849 114.339 100.155 100.346 100.155 100.346C100.155 100.346 91.9904 100.874 86.5623 101.608C77.6761 102.811 68.2558 105.864 63.9805 113.255C60.9072 118.57 60.1672 119.532 62.963 149.523C64.9873 171.238 68.2848 223.232 68.2848 223.232L167.322 223.073C167.322 223.073 171.73 156.396 172.561 146.62C174.148 127.959 176.653 101.657 171.336 100.345C165.141 98.815 144.921 101.33 138.381 100.345C138.271 100.33 139.769 116.174 117.328 115.115Z" fill="#F8A435"/>
<path d="M292.852 41.9714C292.996 41.6459 293.205 41.3532 293.466 41.1112C293.727 40.8692 294.034 40.6829 294.37 40.5637C294.705 40.4445 295.061 40.3949 295.416 40.4179C295.771 40.441 296.118 40.5362 296.435 40.6977C297.038 41.0315 297.492 41.5819 297.705 42.2377C297.918 42.8935 297.874 43.6056 297.582 44.2302L296.148 47.4658L305.356 39.3316C306.364 38.4094 308.19 37.9224 309.15 39.1217C309.549 39.5591 309.788 40.1188 309.828 40.7095C309.868 41.3002 309.706 41.8871 309.37 42.3742C309.382 42.3819 309.393 42.391 309.403 42.4013C309.409 42.4097 309.414 42.4184 309.418 42.4274L310.973 41.0052C311.259 40.7436 311.6 40.5489 311.97 40.4349C312.341 40.3209 312.732 40.2906 313.116 40.3461C313.5 40.4016 313.866 40.5415 314.189 40.7559C314.512 40.9702 314.784 41.2535 314.985 41.5855C315.293 42.122 315.407 42.7486 315.307 43.3594C315.207 43.9702 314.898 44.5276 314.435 44.9372L313.773 45.5421C313.782 45.5702 313.786 45.5997 313.784 45.6292C314.32 45.3265 314.946 45.2225 315.551 45.3356C316.156 45.4486 316.702 45.7714 317.093 46.2472C317.511 46.795 317.706 47.4814 317.638 48.1675C317.57 48.8537 317.244 49.4883 316.726 49.9431L315.101 51.4306C315.139 51.4257 315.177 51.43 315.214 51.4431C315.25 51.4563 315.282 51.4778 315.308 51.506C315.338 51.541 315.357 51.5839 315.362 51.6293C315.905 51.4952 316.476 51.5383 316.993 51.7523C317.509 51.9663 317.944 52.3401 318.233 52.8189C318.541 53.3554 318.655 53.9821 318.555 54.5929C318.455 55.2036 318.147 55.761 317.683 56.1706L303.823 68.8542C301.884 70.6285 299.459 71.7829 296.86 72.1696C294.261 72.5563 291.606 72.1575 289.234 71.0245L281.6 67.3764L292.852 41.9714Z" fill="#E98862"/>
<g opacity="0.2">
<path opacity="0.2" d="M300.299 50.4726C300.342 50.5191 300.401 50.547 300.464 50.55C300.528 50.5531 300.59 50.5312 300.637 50.489L309.383 42.7427C309.407 42.7216 309.426 42.6961 309.44 42.6675C309.454 42.639 309.462 42.608 309.464 42.5763C309.466 42.5446 309.462 42.5128 309.451 42.4828C309.441 42.4527 309.425 42.425 309.404 42.4013C309.383 42.3775 309.357 42.3581 309.329 42.3442C309.3 42.3302 309.269 42.3221 309.237 42.3201C309.206 42.3182 309.174 42.3226 309.144 42.3329C309.114 42.3432 309.086 42.3594 309.062 42.3805L300.314 50.1273C300.29 50.1484 300.27 50.1739 300.257 50.2025C300.243 50.2311 300.235 50.2621 300.233 50.2938C300.231 50.3255 300.235 50.3573 300.246 50.3873C300.256 50.4173 300.272 50.445 300.293 50.4687L300.299 50.4726Z" fill="#474646"/>
</g>
<g opacity="0.2">
<path opacity="0.2" d="M303.608 54.4258C303.651 54.4725 303.71 54.5004 303.773 54.5035C303.837 54.5067 303.899 54.4849 303.946 54.4428L313.707 45.797C313.73 45.7759 313.75 45.7504 313.764 45.7218C313.778 45.6933 313.786 45.6623 313.788 45.6306C313.79 45.5989 313.785 45.5671 313.775 45.5371C313.765 45.507 313.748 45.4793 313.727 45.4555C313.684 45.4094 313.624 45.3817 313.561 45.3779C313.497 45.3741 313.435 45.3946 313.386 45.4352L303.625 54.0806C303.601 54.1017 303.582 54.1272 303.568 54.1558C303.554 54.1843 303.546 54.2154 303.544 54.2471C303.542 54.2788 303.547 54.3105 303.557 54.3405C303.568 54.3706 303.584 54.3982 303.605 54.422L303.608 54.4258Z" fill="#474646"/>
</g>
<g opacity="0.2">
<path opacity="0.2" d="M307.166 58.7282C307.209 58.7748 307.269 58.8028 307.332 58.8059C307.395 58.8091 307.457 58.7873 307.505 58.7451L315.291 51.8489C315.339 51.8063 315.368 51.7464 315.372 51.6823C315.376 51.6183 315.354 51.5553 315.312 51.5072C315.269 51.4592 315.209 51.4301 315.145 51.4262C315.081 51.4224 315.018 51.4441 314.97 51.4867L307.184 58.3829C307.16 58.404 307.141 58.4295 307.127 58.4581C307.113 58.4866 307.105 58.5176 307.103 58.5493C307.101 58.581 307.105 58.6128 307.116 58.6428C307.126 58.6729 307.142 58.7006 307.163 58.7244L307.166 58.7282Z" fill="#474646"/>
</g>
<path d="M284.025 50.9382L231.539 93.9517L158.884 100.509C154.225 100.9 149.897 103.076 146.804 106.584C143.711 110.093 142.093 114.661 142.287 119.334C142.482 124.008 144.474 128.425 147.848 131.664C151.222 134.903 155.716 136.712 160.391 136.714C160.904 136.714 161.419 136.692 161.938 136.648L240.296 129.608C244.007 129.294 247.532 127.843 250.39 125.454L305.358 76.6678L284.025 50.9382Z" fill="#F8A435"/>
<path d="M295.665 48.6742L297.582 44.2302C297.874 43.6057 297.918 42.8935 297.705 42.2377C297.492 41.5819 297.038 41.0315 296.435 40.6977C296.118 40.5362 295.771 40.441 295.416 40.418C295.061 40.3949 294.705 40.4445 294.37 40.5637C294.034 40.6829 293.727 40.8692 293.466 41.1112C293.205 41.3533 292.996 41.6459 292.852 41.9714" fill="#E98862"/>
<path d="M158.633 182.023C158.58 182.71 158.269 183.351 157.761 183.817C157.253 184.283 156.587 184.538 155.898 184.53L153.696 184.557C153.727 184.579 153.753 184.607 153.771 184.641C153.789 184.675 153.798 184.712 153.798 184.75C153.799 184.797 153.785 184.842 153.758 184.88C154.252 185.142 154.649 185.555 154.891 186.059C155.133 186.564 155.208 187.132 155.103 187.682C154.974 188.287 154.641 188.83 154.159 189.218C153.677 189.606 153.076 189.817 152.457 189.813L133.679 190.017C131.051 190.047 128.474 189.291 126.279 187.845C124.084 186.4 122.371 184.331 121.36 181.905L118.096 174.092L128.09 171.965L128.329 169.472L143.418 162.663C143.742 162.517 144.093 162.438 144.449 162.431C144.804 162.425 145.158 162.491 145.487 162.626C145.816 162.761 146.115 162.961 146.364 163.215C146.613 163.469 146.808 163.771 146.937 164.102C147.164 164.753 147.136 165.466 146.858 166.097C146.58 166.728 146.073 167.23 145.439 167.501L142.212 168.956L154.496 169.039C155.864 169.023 157.549 169.878 157.464 171.408C157.471 172 157.277 172.578 156.914 173.045C156.55 173.513 156.039 173.843 155.463 173.983C155.463 173.998 155.466 174.008 155.467 174.024L155.46 174.051L157.566 174.029C157.954 174.025 158.339 174.106 158.691 174.269C159.044 174.431 159.357 174.67 159.606 174.968C159.855 175.266 160.035 175.615 160.132 175.991C160.23 176.367 160.243 176.76 160.17 177.142C160.043 177.747 159.711 178.289 159.229 178.677C158.748 179.065 158.148 179.274 157.53 179.27L156.629 179.283C156.617 179.307 156.602 179.329 156.585 179.351C157.186 179.485 157.72 179.826 158.094 180.315C158.469 180.803 158.659 181.408 158.633 182.023V182.023Z" fill="#E98862"/>
<g opacity="0.2">
<path opacity="0.2" d="M143.301 173.967C143.302 174.03 143.328 174.09 143.373 174.135C143.418 174.179 143.479 174.204 143.543 174.204L155.224 174.265C155.288 174.265 155.35 174.24 155.395 174.194C155.44 174.149 155.466 174.087 155.466 174.023C155.466 173.959 155.44 173.898 155.395 173.852C155.35 173.807 155.288 173.782 155.224 173.782L143.543 173.721C143.479 173.721 143.417 173.746 143.372 173.791C143.326 173.837 143.301 173.898 143.301 173.962V173.967Z" fill="#474646"/>
</g>
<g opacity="0.2">
<path opacity="0.2" d="M143.132 179.12C143.133 179.184 143.159 179.244 143.204 179.288C143.249 179.333 143.31 179.358 143.374 179.358L156.41 179.426C156.474 179.426 156.535 179.4 156.581 179.355C156.626 179.31 156.651 179.248 156.651 179.184C156.649 179.121 156.623 179.06 156.578 179.015C156.534 178.97 156.473 178.944 156.41 178.942L143.374 178.875C143.309 178.875 143.248 178.9 143.203 178.945C143.157 178.991 143.132 179.052 143.132 179.116V179.12Z" fill="#474646"/>
</g>
<g opacity="0.2">
<path opacity="0.2" d="M142.917 184.701C142.918 184.764 142.944 184.824 142.989 184.869C143.034 184.913 143.095 184.938 143.158 184.938L153.557 184.992C153.621 184.992 153.683 184.967 153.728 184.921C153.773 184.876 153.799 184.815 153.799 184.75C153.799 184.686 153.773 184.625 153.728 184.579C153.683 184.534 153.621 184.509 153.557 184.509L143.158 184.454C143.094 184.454 143.033 184.48 142.987 184.525C142.942 184.571 142.917 184.632 142.917 184.696V184.701Z" fill="#474646"/>
</g>
<path d="M132.709 195.608L54.0821 209.62C50.7788 210.497 47.2949 210.422 44.0324 209.404C40.7699 208.385 37.8616 206.465 35.6432 203.864C33.4248 201.263 31.9866 198.087 31.4946 194.704C31.0026 191.32 31.4768 187.866 32.8625 184.741L61.4965 118.104C65.5567 108.949 75.5918 104.82 84.7414 108.882C89.1357 110.832 92.5756 114.449 94.3044 118.936C96.0333 123.424 95.9094 128.414 93.9602 132.811L77.1449 172.688L129.729 165.698L132.709 195.608Z" fill="#F8A435"/>
<path d="M67.6323 207.539C67.6549 207.54 67.6774 207.536 67.699 207.53L132.775 195.841C132.836 195.823 132.887 195.783 132.918 195.728C132.949 195.673 132.958 195.609 132.942 195.548L129.963 164.67C129.947 164.608 129.908 164.556 129.854 164.523C129.799 164.49 129.735 164.48 129.673 164.495L77.5799 172.34L94.1743 132.915C94.1983 132.858 94.1995 132.794 94.1775 132.736C94.1556 132.678 94.1122 132.631 94.0563 132.604C94.0004 132.577 93.9364 132.572 93.8774 132.591C93.8183 132.61 93.7689 132.651 93.7393 132.706L76.9274 172.583C76.9081 172.624 76.9008 172.67 76.9062 172.715C76.9116 172.76 76.9295 172.803 76.9579 172.838C76.9863 172.873 77.0241 172.9 77.0669 172.915C77.1097 172.929 77.1558 172.932 77.2 172.922L129.555 165.017L132.415 195.439L67.5651 207.067C67.5089 207.082 67.4604 207.118 67.4285 207.167C67.3966 207.216 67.3836 207.275 67.3918 207.333C67.4 207.391 67.4289 207.444 67.4731 207.482C67.5173 207.52 67.5739 207.541 67.6323 207.541V207.539Z" fill="#474646"/>
<path d="M70.6374 173.8C70.6546 173.8 70.6718 173.798 70.6886 173.794L77.1971 172.924C77.2284 172.917 77.258 172.905 77.2844 172.887C77.3108 172.869 77.3333 172.845 77.3507 172.819C77.3681 172.792 77.38 172.762 77.3857 172.73C77.3915 172.699 77.3909 172.667 77.3841 172.635C77.3773 172.604 77.3644 172.575 77.3461 172.548C77.3278 172.522 77.3045 172.5 77.2775 172.483C77.2506 172.466 77.2205 172.454 77.189 172.449C77.1575 172.443 77.1253 172.444 77.0941 172.451L70.5856 173.322C70.5276 173.335 70.4764 173.369 70.4418 173.417C70.4072 173.465 70.3916 173.525 70.398 173.584C70.4044 173.643 70.4323 173.698 70.4765 173.737C70.5207 173.777 70.5779 173.799 70.6374 173.799V173.8Z" fill="#474646"/>
<path d="M173.482 135.913C173.543 135.913 173.601 135.89 173.646 135.849C173.691 135.807 173.719 135.751 173.723 135.69L174.8 121.744C174.805 121.68 174.785 121.617 174.743 121.568C174.701 121.519 174.641 121.489 174.577 121.484C174.513 121.479 174.45 121.5 174.401 121.541C174.352 121.583 174.322 121.643 174.317 121.707L173.24 135.653C173.235 135.717 173.256 135.78 173.298 135.828C173.339 135.877 173.399 135.907 173.462 135.912C173.469 135.913 173.475 135.913 173.482 135.913Z" fill="#474646"/>
<path d="M140.533 56.9864C141.4 56.9864 142.103 56.2832 142.103 55.4157C142.103 54.5483 141.4 53.8451 140.533 53.8451C139.666 53.8451 138.963 54.5483 138.963 55.4157C138.963 56.2832 139.666 56.9864 140.533 56.9864Z" fill="#474646"/>
<path d="M124.619 59.676C125.487 59.676 126.189 58.9728 126.189 58.1053C126.189 57.2379 125.487 56.5347 124.619 56.5347C123.752 56.5347 123.049 57.2379 123.049 58.1053C123.049 58.9728 123.752 59.676 124.619 59.676Z" fill="#474646"/>
<path d="M29.0598 249H278.538C278.666 249 278.789 248.949 278.88 248.858C278.97 248.768 279.021 248.645 279.021 248.516C279.021 248.388 278.97 248.265 278.88 248.174C278.789 248.084 278.666 248.033 278.538 248.033H29.0598C28.9316 248.033 28.8087 248.084 28.7181 248.174C28.6274 248.265 28.5765 248.388 28.5765 248.516C28.5765 248.645 28.6274 248.768 28.7181 248.858C28.8087 248.949 28.9316 249 29.0598 249Z" fill="#292A2E"/>
<circle cx="194" cy="23" r="13" fill="#F8A435"/>
<circle cx="232" cy="23" r="13" fill="#F8A435"/>
<circle cx="270" cy="23" r="13" fill="#F8A435"/>
<circle cx="307" cy="23" r="13" fill="#F8A435"/>
</g>
<defs>
<clipPath id="clip0_110_129">
<rect width="332" height="249" fill="white"/>
</clipPath>
</defs>
</svg>
